<svg width="200" height="200" viewBox="0 0 200 200" xmlns="http://www.w3.org/2000/svg">
  <!-- Microchip Base -->
  <rect x="20" y="20" width="160" height="160" rx="15" fill="#0a0a0f" stroke="#00f5ff" stroke-width="3"/>
  
  <!-- Microchip Inner Circuit -->
  <rect x="35" y="35" width="130" height="130" rx="6" fill="#0a0a0f" stroke="#ffd700" stroke-width="2" stroke-dasharray="4 4"/>
  
  <!-- Circuit Lines -->
  <path d="M50 50 L150 50 M50 70 L150 70 M50 90 L150 90 M50 110 L150 110 M50 130 L150 130 M50 150 L150 150" stroke="#00ff41" stroke-width="2" stroke-dasharray="3 3"/>
  <path d="M50 50 L50 150 M70 50 L70 150 M90 50 L90 150 M110 50 L110 150 M130 50 L130 150 M150 50 L150 150" stroke="#00ff41" stroke-width="2" stroke-dasharray="3 3"/>
  
  <!-- DOMINANT eS Text in Center - Much Larger & Bolder -->
  <text x="100" y="100" text-anchor="middle" font-family="Arial, sans-serif" font-size="48" font-weight="900" fill="#00f5ff">e</text>
  <text x="135" y="100" text-anchor="middle" font-family="Arial, sans-serif" font-size="48" font-weight="900" fill="#ffd700">S</text>
  
  <!-- Microchip Pins - Top -->
  <rect x="30" y="10" width="4" height="10" fill="#00f5ff"/>
  <rect x="50" y="10" width="4" height="10" fill="#00f5ff"/>
  <rect x="70" y="10" width="4" height="10" fill="#00f5ff"/>
  <rect x="90" y="10" width="4" height="10" fill="#00f5ff"/>
  <rect x="110" y="10" width="4" height="10" fill="#00f5ff"/>
  <rect x="130" y="10" width="4" height="10" fill="#00f5ff"/>
  <rect x="150" y="10" width="4" height="10" fill="#00f5ff"/>
  <rect x="170" y="10" width="4" height="10" fill="#00f5ff"/>
  
  <!-- Microchip Pins - Bottom -->
  <rect x="30" y="180" width="4" height="10" fill="#00f5ff"/>
  <rect x="50" y="180" width="4" height="10" fill="#00f5ff"/>
  <rect x="70" y="180" width="4" height="10" fill="#00f5ff"/>
  <rect x="90" y="180" width="4" height="10" fill="#00f5ff"/>
  <rect x="110" y="180" width="4" height="10" fill="#00f5ff"/>
  <rect x="130" y="180" width="4" height="10" fill="#00f5ff"/>
  <rect x="150" y="180" width="4" height="10" fill="#00f5ff"/>
  <rect x="170" y="180" width="4" height="10" fill="#00f5ff"/>
  
  <!-- Microchip Pins - Left -->
  <rect x="10" y="30" width="10" height="4" fill="#00f5ff"/>
  <rect x="10" y="50" width="10" height="4" fill="#00f5ff"/>
  <rect x="10" y="70" width="10" height="4" fill="#00f5ff"/>
  <rect x="10" y="90" width="10" height="4" fill="#00f5ff"/>
  <rect x="10" y="110" width="10" height="4" fill="#00f5ff"/>
  <rect x="10" y="130" width="10" height="4" fill="#00f5ff"/>
  <rect x="10" y="150" width="10" height="4" fill="#00f5ff"/>
  <rect x="10" y="170" width="10" height="4" fill="#00f5ff"/>
  
  <!-- Microchip Pins - Right -->
  <rect x="180" y="30" width="10" height="4" fill="#00f5ff"/>
  <rect x="180" y="50" width="10" height="4" fill="#00f5ff"/>
  <rect x="180" y="70" width="10" height="4" fill="#00f5ff"/>
  <rect x="180" y="90" width="10" height="4" fill="#00f5ff"/>
  <rect x="180" y="110" width="10" height="4" fill="#00f5ff"/>
  <rect x="180" y="130" width="10" height="4" fill="#00f5ff"/>
  <rect x="180" y="150" width="10" height="4" fill="#00f5ff"/>
  <rect x="180" y="170" width="10" height="4" fill="#00f5ff"/>
  
  <!-- Enhanced Glow Effect -->
  <rect x="20" y="20" width="160" height="160" rx="15" fill="none" stroke="#00f5ff" stroke-width="2" opacity="0.7">
    <animate attributeName="opacity" values="0.7;1;0.7" dur="2s" repeatCount="indefinite"/>
  </rect>
</svg>
